:FULLY-SPECIFIED
:FORCE-ALL-JOINTS-BE-3DOF
:DEGREES
544
root 7.72533 14.7324 -3.68293 -193.861 54.2988 -197.221
lfemur -29.0023 -5.67847 -20.0255
ltibia 78.166 0 0
lfoot -36.3287 1.05393 0
ltoes -9.1633 0 0
rfemur -46.9261 -4.89512 -3.3347
rtibia 49.5164 0 0
rfoot -0.717275 4.99707 0
rtoes -43.8463 0 0
lowerback 12.4602 1.27824 0.772479
upperback 6.12112 2.65657 7.32504
thorax -0.855209 1.55673 6.91279
lowerneck -3.82901 -16.8062 -6.89399
upperneck 12.7763 -22.692 7.02079
head 6.03369 -10.8939 1.51803
lclavicle 7.64385e-014 4.8075e-014 0
lhumerus -43.1412 -18.5774 106.447
lradius 59.4712 0 0
lwrist 25.1376 0 0
lhand -24.4145 -5.68169 0
lfingers 7.12502 0 0
lthumb 2.08579 24.4443 0
rclavicle 7.64385e-014 4.8075e-014 0
rhumerus 18.5721 10.9417 -83.4136
rradius 142.766 0 0
rwrist -55.4888 0 0
rhand -31.6536 -25.0424 0
rfingers 7.12502 0 0
rthumb -4.91371 -775.007 0
545
root 7.72377 14.774 -3.66829 -194.602 54.975 -198.055
lfemur -28.6392 -5.68139 -19.9642
ltibia 77.3048 0 0
lfoot -36.2552 1.26363 0
ltoes -8.90008 0 0
rfemur -47.0397 -5.12514 -2.91138
rtibia 49.135 0 0
rfoot -0.44719 4.86959 0
rtoes -43.688 0 0
lowerback 12.3388 1.23675 0.698349
upperback 6.04406 2.57716 7.24564
thorax -0.86025 1.51149 6.88053
lowerneck -3.83568 -16.7594 -6.84881
upperneck 12.695 -22.6282 6.99455
head 5.99501 -10.8664 1.51499
lclavicle 7.41506e-014 4.63762e-014 0
lhumerus -43.1533 -18.3256 106.023
lradius 59.3375 0 0
lwrist 25.141 0 0
lhand -24.4828 -5.68185 0
lfingers 7.12502 0 0
lthumb 2.02008 24.4507 0
rclavicle 7.41506e-014 4.63762e-014 0
rhumerus 19.1837 11.096 -83.0752
rradius 142.853 0 0
rwrist -55.4467 0 0
rhand -31.5382 -24.9298 0
rfingers 7.12502 0 0
rthumb -4.8022 -774.897 0
546
root 7.72002 14.8185 -3.65499 -195.221 55.695 -198.773
lfemur -28.262 -5.69182 -19.9031
ltibia 76.387 0 0
lfoot -36.1688 1.47695 0
ltoes -8.60625 0 0
rfemur -47.1626 -5.35788 -2.46162
rtibia 48.7627 0 0
rfoot -0.157274 4.73836 0
rtoes -43.5027 0 0
lowerback 12.2068 1.19235 0.620018
upperback 5.95963 2.49226 7.15831
thorax -0.866571 1.46313 6.84292
lowerneck -3.84622 -16.705 -6.79767
upperneck 12.6061 -22.554 6.96344
head 5.95328 -10.8341 1.51074
lclavicle 7.17107e-014 4.45738e-014 0
lhumerus -43.1699 -18.0744 105.589
lradius 59.1963 0 0
lwrist 25.1287 0 0
lhand -24.5314 -5.67744 0
lfingers 7.12502 0 0
lthumb 1.97339 24.4599 0
rclavicle 7.17107e-014 4.45738e-014 0
rhumerus 19.77 11.2652 -82.7339
rradius 142.895 0 0
rwrist -55.3432 0 0
rhand -31.4043 -24.8097 0
rfingers 7.12502 0 0
rthumb -4.6729 -774.779 0
547
root 7.71418 14.8656 -3.64295 -195.719 56.4542 -199.377
lfemur -27.872 -5.70837 -19.8426
ltibia 75.4171 0 0
lfoot -36.0706 1.69395 0
ltoes -8.28346 0 0
rfemur -47.2941 -5.59309 -1.98731
rtibia 48.4003 0 0
rfoot 0.150875 4.60456 0
rtoes -43.2918 0 0
lowerback 12.0649 1.1452 0.537795
upperback 5.8683 2.40218 7.06359
thorax -0.874094 1.41185 6.80033
lowerneck -3.8605 -16.6432 -6.7409
upperneck 12.5102 -22.4698 6.92772
head 5.9088 -10.7972 1.50533
lclavicle 6.91348e-014 4.26774e-014 0
lhumerus -43.1901 -17.825 105.146
lradius 59.0481 0 0
lwrist 25.1016 0 0
lhand -24.5611 -5.66863 0
lfingers 7.12502 0 0
lthumb 1.94485 24.4717 0
rclavicle 6.91348e-014 4.26774e-014 0
rhumerus 20.3315 11.4477 -82.39
rradius 142.893 0 0
rwrist -55.1825 0 0
rhand -31.2535 -24.683 0
rfingers 7.12502 0 0
rthumb -4.52722 -774.654 0
548
root 7.70635 14.9151 -3.63214 -196.099 57.2479 -199.867
lfemur -27.4706 -5.72965 -19.7827
ltibia 74.3997 0 0
lfoot -35.9616 1.91466 0
ltoes -7.93334 0 0
rfemur -47.4334 -5.83047 -1.49036
rtibia 48.0484 0 0
rfoot 0.475661 4.46935 0
rtoes -43.0565 0 0
lowerback 11.9139 1.09544 0.451992
upperback 5.77056 2.30725 6.96203
thorax -0.882743 1.35786 6.75309
lowerneck -3.8784 -16.5745 -6.67878
upperneck 12.4083 -22.3762 6.88766
head 5.86186 -10.7559 1.49881
lclavicle 6.64388e-014 4.06966e-014 0
lhumerus -43.2131 -17.5786 104.695
lradius 58.894 0 0
lwrist 25.0607 0 0
lhand -24.5728 -5.65562 0
lfingers 7.12502 0 0
lthumb 1.93362 24.4862 0
rclavicle 6.64388e-014 4.06966e-014 0
rhumerus 20.869 11.6419 -82.0443
rradius 142.85 0 0
rwrist -54.9693 0 0
rhand -31.0871 -24.5504 0
rfingers 7.12502 0 0
rthumb -4.36655 -774.523 0
549
root 7.69663 14.9668 -3.62247 -196.361 58.0715 -200.246
lfemur -27.0592 -5.75427 -19.7238
ltibia 73.3393 0 0
lfoot -35.8429 2.13913 0
ltoes -7.55752 0 0
rfemur -47.5799 -6.06976 -0.972667
rtibia 47.7078 0 0
rfoot 0.815485 4.3339 0
rtoes -42.7982 0 0
lowerback 11.7544 1.04321 0.362917
upperback 5.6669 2.20781 6.85416
thorax -0.89244 1.30134 6.70157
lowerneck -3.89977 -16.4993 -6.61164
upperneck 12.3009 -22.2738 6.84355
head 5.81277 -10.7105 1.49122
lclavicle 6.36386e-014 3.8641e-014 0
lhumerus -43.2379 -17.3363 104.237
lradius 58.7346 0 0
lwrist 25.007 0 0
lhand -24.5673 -5.63859 0
lfingers 7.12502 0 0
lthumb 1.93884 24.5033 0
rclavicle 6.36386e-014 3.8641e-014 0
rhumerus 21.383 11.8462 -81.6972
rradius 142.768 0 0
rwrist -54.7079 0 0
rhand -30.9067 -24.4127 0
rfingers 7.12502 0 0
rthumb -4.19229 -774.387 0
550
root 7.68513 15.0204 -3.61391 -196.508 58.9202 -200.513
lfemur -26.6391 -5.78084 -19.666
ltibia 72.2404 0 0
lfoot -35.7153 2.36741 0
ltoes -7.15766 0 0
rfemur -47.7328 -6.31069 -0.43614
rtibia 47.3791 0 0
rfoot 1.16875 4.19939 0
rtoes -42.518 0 0
lowerback 11.5872 0.988678 0.27088
upperback 5.5578 2.10419 6.74055
thorax -0.903109 1.24249 6.6461
lowerneck -3.92449 -16.418 -6.53977
upperneck 12.189 -22.1631 6.79565
head 5.76181 -10.6612 1.48261
lclavicle 6.07502e-014 3.65204e-014 0
lhumerus -43.2636 -17.0993 103.775
lradius 58.5707 0 0
lwrist 24.9414 0 0
lhand -24.5457 -5.61775 0
lfingers 7.12502 0 0
lthumb 1.95966 24.5227 0
rclavicle 6.07502e-014 3.65204e-014 0
rhumerus 21.8741 12.0591 -81.3492
rradius 142.649 0 0
rwrist -54.4028 0 0
rhand -30.7136 -24.2706 0
rfingers 7.12502 0 0
rthumb -4.00585 -774.246 0
551
root 7.67193 15.0758 -3.60638 -196.541 59.7895 -200.671
lfemur -26.2118 -5.80797 -19.6096
ltibia 71.1076 0 0
lfoot -35.58 2.59954 0
ltoes -6.73537 0 0
rfemur -47.8916 -6.55298 0.117319
rtibia 47.063 0 0
rfoot 1.53386 4.06698 0
rtoes -42.2171 0 0
lowerback 11.413 0.931976 0.176192
upperback 5.44375 1.9967 6.62173
thorax -0.914674 1.1815 6.58704
lowerneck -3.95242 -16.3309 -6.46349
upperneck 12.0733 -22.0447 6.74424
head 5.7093 -10.6084 1.47302
lclavicle 5.77893e-014 3.43442e-014 0
lhumerus -43.2892 -16.8688 103.308
lradius 58.4033 0 0
lwrist 24.8649 0 0
lhand -24.5087 -5.59327 0
lfingers 7.12502 0 0
lthumb 1.99524 24.5444 0
rclavicle 5.77893e-014 3.43442e-014 0
rhumerus 22.3429 12.2789 -81.001
rradius 142.495 0 0
rwrist -54.0584 0 0
rhand -30.5094 -24.125 0
rfingers 7.12502 0 0
rthumb -3.80863 -774.101 0
552
root 7.65715 15.1327 -3.59982 -196.462 60.6745 -200.72
lfemur -25.7785 -5.83427 -19.5547
ltibia 69.9454 0 0
lfoot -35.438 2.83556 0
ltoes -6.29231 0 0
rfemur -48.0555 -6.79635 0.685806
rtibia 46.7601 0 0
rfoot 1.90922 3.93783 0
rtoes -41.897 0 0
lowerback 11.2325 0.873257 0.0791609
upperback 5.32523 1.88569 6.49824
thorax -0.927056 1.11857 6.52473
lowerneck -3.98343 -16.2385 -6.3831
upperneck 11.9545 -21.9191 6.68959
head 5.65552 -10.5521 1.46249
lclavicle 5.4772e-014 3.21221e-014 0
lhumerus -43.314 -16.646 102.839
lradius 58.233 0 0
lwrist 24.7784 0 0
lhand -24.4573 -5.56535 0
lfingers 7.12502 0 0
lthumb 2.04471 24.5684 0
rclavicle 5.4772e-014 3.21221e-014 0
rhumerus 22.79 12.5041 -80.6529
rradius 142.308 0 0
rwrist -53.6793 0 0
rhand -30.2954 -23.9766 0
rfingers 7.12502 0 0
rthumb -3.60202 -773.954 0
553
root 7.64087 15.1908 -3.59419 -196.273 61.5706 -200.662
lfemur -25.3406 -5.85836 -19.5015
ltibia 68.7583 0 0
lfoot -35.2903 3.07551 0
ltoes -5.83011 0 0
rfemur -48.2238 -7.04053 1.26742
rtibia 46.4712 0 0
rfoot 2.29323 3.81313 0
rtoes -41.5588 0 0
lowerback 11.0464 0.812666 -0.0199021
upperback 5.20274 1.77147 6.37064
thorax -0.940179 1.05391 6.45954
lowerneck -4.01738 -16.1412 -6.29891
upperneck 11.8334 -21.787 6.63197
head 5.60077 -10.4927 1.45106
lclavicle 5.17141e-014 2.98637e-014 0
lhumerus -43.3369 -16.432 102.368
lradius 58.0607 0 0
lwrist 24.6828 0 0
lhand -24.3923 -5.53419 0
lfingers 7.12502 0 0
lthumb 2.10723 24.5945 0
rclavicle 5.17141e-014 2.98637e-014 0
rhumerus 23.2161 12.733 -80.3056
rradius 142.091 0 0
rwrist -53.2699 0 0
rhand -30.0732 -23.8262 0
rfingers 7.12502 0 0
rthumb -3.38743 -773.804 0
554
root 7.62321 15.25 -3.58942 -195.975 62.4733 -200.498
lfemur -24.8995 -5.87883 -19.4503
ltibia 67.5509 0 0
lfoot -35.1379 3.31946 0
ltoes -5.3504 0 0
rfemur -48.3958 -7.28526 1.86025
rtibia 46.197 0 0
rfoot 2.68429 3.69404 0
rtoes -41.2038 0 0
lowerback 10.8554 0.750353 -0.120688
upperback 5.07675 1.65438 6.23946
thorax -0.953966 0.987686 6.39179
lowerneck -4.05415 -16.0393 -6.21122
upperneck 11.7108 -21.6488 6.57166
head 5.54536 -10.4303 1.43879
lclavicle 4.86315e-014 2.75786e-014 0
lhumerus -43.3572 -16.2281 101.897
lradius 57.8871 0 0
lwrist 24.5792 0 0
lhand -24.3146 -5.49996 0
lfingers 7.12502 0 0
lthumb 2.18194 24.6226 0
rclavicle 4.86315e-014 2.75786e-014 0
rhumerus 23.6218 12.9641 -79.9596
rradius 141.845 0 0
rwrist -52.8347 0 0
rhand -29.8442 -23.6745 0
rfingers 7.12502 0 0
rthumb -3.16625 -773.653 0
555
root 7.60426 15.3101 -3.58544 -195.57 63.3776 -200.23
lfemur -24.4566 -5.8943 -19.4012
ltibia 66.3276 0 0
lfoot -34.9818 3.56742 0
ltoes -4.85483 0 0
rfemur -48.5709 -7.53024 2.4624
rtibia 45.938 0 0
rfoot 3.08081 3.58172 0
rtoes -40.8333 0 0
lowerback 10.6603 0.686465 -0.222886
upperback 4.94775 1.53474 6.10525
thorax -0.968341 0.920113 6.32186
lowerneck -4.0936 -15.9332 -6.12035
upperneck 11.5874 -21.5051 6.50892
head 5.48958 -10.3653 1.42571
lclavicle 4.55402e-014 2.52765e-014 0
lhumerus -43.3738 -16.0353 101.426
lradius 57.7132 0 0
lwrist 24.4685 0 0
lhand -24.2251 -5.46287 0
lfingers 7.12502 0 0
lthumb 2.268 24.6526 0
rclavicle 4.55402e-014 2.52765e-014 0
rhumerus 24.0076 13.1958 -79.6154
rradius 141.573 0 0
rwrist -52.378 0 0
rhand -29.6098 -23.5224 0
rfingers 7.12502 0 0
rthumb -2.93989 -773.501 0
